<svg width="162" height="44" viewBox="0 0 162 44" fill="none" xmlns="http://www.w3.org/2000/svg">
<path d="M0.78 43V0.999997H8.76L16.8 25.84H17.22L25.44 0.999997H33.12V43H27.84V7.3L19.8 31.84H14.1L6.06 7.24V43H0.78ZM40.5623 39.04H47.1023C49.3823 39.04 51.0223 38.36 52.0223 37C53.0623 35.64 53.5823 33.96 53.5823 31.96C53.5823 30.4 53.2823 29.06 52.6823 27.94C52.1223 26.78 51.4223 25.82 50.5823 25.06C49.7423 24.3 48.6023 23.42 47.1623 22.42C45.6423 21.38 44.4023 20.44 43.4423 19.6C42.5223 18.72 41.7423 17.62 41.1023 16.3C40.4623 14.98 40.1423 13.4 40.1423 11.56C40.1423 8.36 41.1023 5.8 43.0223 3.88C44.9423 1.96 47.6023 0.999997 51.0023 0.999997H55.8623V4.96H51.2423C49.3223 4.96 47.8623 5.58 46.8623 6.82C45.8623 8.06 45.3623 9.5 45.3623 11.14C45.3623 12.74 45.8223 14.06 46.7423 15.1C47.6623 16.14 49.0623 17.32 50.9423 18.64C52.6623 19.88 54.0423 21 55.0823 22C56.1223 22.96 57.0023 24.24 57.7223 25.84C58.4823 27.44 58.8623 29.36 58.8623 31.6C58.8623 35.36 57.7823 38.2 55.6223 40.12C53.5023 42.04 50.5823 43 46.8623 43H40.5623V39.04ZM70.2998 43C68.8598 43 67.5198 42.64 66.2798 41.92C65.0798 41.2 64.1198 40.22 63.3998 38.98C62.7198 37.74 62.3798 36.34 62.3798 34.78V31.66C62.3798 29.78 62.8398 28.2 63.7598 26.92C64.7198 25.64 65.8998 24.74 67.2998 24.22L74.7398 21.46V18.64C74.7398 17.68 74.4398 16.9 73.8398 16.3C73.2798 15.66 72.5398 15.34 71.6198 15.34H64.8398V11.8H72.0398C74.2398 11.8 75.9798 12.46 77.2598 13.78C78.5798 15.06 79.2398 16.82 79.2398 19.06V43H70.2998ZM74.7398 39.34V25.24L69.4598 27.22C68.4198 27.62 67.6798 28.16 67.2398 28.84C66.8398 29.52 66.6398 30.6 66.6398 32.08V35.44C66.6398 36.52 67.0398 37.44 67.8398 38.2C68.6398 38.96 69.5998 39.34 70.7198 39.34H74.7398ZM85.8539 11.8H89.5739L90.1139 13.54L92.5739 12.82C94.2539 12.3 95.5739 11.94 96.5339 11.74C97.5339 11.5 98.4739 11.38 99.3539 11.38C100.794 11.38 101.854 11.88 102.534 12.88C103.214 13.88 103.554 15.18 103.554 16.78V43H98.7539V18.34C98.7539 17.18 98.6739 16.38 98.5139 15.94C98.3539 15.46 97.9539 15.22 97.3139 15.22C96.9939 15.22 94.7739 15.86 90.6539 17.14V43H85.8539V11.8ZM118.929 43C116.729 43 114.989 42.34 113.709 41.02C112.429 39.7 111.789 37.92 111.789 35.68V15.4H108.189V11.8H111.789V2.74L116.589 0.939998V11.8H121.389V15.4H116.589V36.1C116.589 37.06 116.849 37.86 117.369 38.5C117.929 39.1 118.669 39.4 119.589 39.4H121.389V43H118.929ZM133.786 43.42C130.986 43.42 128.806 42.72 127.246 41.32C125.726 39.88 124.966 37.9 124.966 35.38V19.42C124.966 16.9 125.726 14.94 127.246 13.54C128.806 12.1 130.986 11.38 133.786 11.38C136.586 11.38 138.746 12.1 140.266 13.54C141.826 14.94 142.606 16.9 142.606 19.42V35.38C142.606 37.9 141.826 39.88 140.266 41.32C138.746 42.72 136.586 43.42 133.786 43.42ZM133.786 39.7C135.066 39.7 136.066 39.34 136.786 38.62C137.546 37.86 137.926 36.78 137.926 35.38V19.42C137.926 18.02 137.546 16.96 136.786 16.24C136.066 15.48 135.066 15.1 133.786 15.1C132.506 15.1 131.486 15.48 130.726 16.24C130.006 16.96 129.646 18.02 129.646 19.42V35.38C129.646 36.78 130.006 37.86 130.726 38.62C131.486 39.34 132.506 39.7 133.786 39.7ZM146.808 39.4H151.908C153.628 39.4 154.868 38.94 155.628 38.02C156.428 37.06 156.828 35.82 156.828 34.3C156.828 33.1 156.468 32.08 155.748 31.24C155.028 30.4 153.948 29.42 152.508 28.3C151.268 27.3 150.268 26.44 149.508 25.72C148.788 24.96 148.148 24.04 147.588 22.96C147.068 21.84 146.808 20.56 146.808 19.12C146.808 17 147.508 15.26 148.908 13.9C150.348 12.5 152.268 11.8 154.668 11.8H159.888V15.4H155.568C152.728 15.4 151.308 16.74 151.308 19.42C151.308 20.46 151.628 21.36 152.268 22.12C152.908 22.88 153.908 23.78 155.268 24.82C156.508 25.78 157.528 26.66 158.328 27.46C159.128 28.22 159.808 29.2 160.368 30.4C160.928 31.56 161.208 32.94 161.208 34.54C161.208 37.38 160.448 39.5 158.928 40.9C157.448 42.3 155.348 43 152.628 43H146.808V39.4Z" fill="white"/>
</svg>
