<svg width="130" height="43" viewBox="0 0 130 43" fill="none" xmlns="http://www.w3.org/2000/svg">
<path d="M0.9 42V-2.86102e-06H9.72L19.5 36.3V-2.86102e-06H24.84V42H17.28L6.18 3.84V42H0.9ZM38.5978 42C36.3978 42 34.6378 41.34 33.3178 40.02C32.0378 38.7 31.3978 36.92 31.3978 34.68V18.72C31.3978 16.12 32.1178 14.08 33.5578 12.6C34.9978 11.12 37.1378 10.38 39.9778 10.38C42.8178 10.38 44.9378 11.12 46.3378 12.6C47.7778 14.08 48.4978 16.12 48.4978 18.72V21.48C48.4978 23.16 48.0178 24.44 47.0578 25.32C46.0978 26.16 44.8378 26.8 43.2778 27.24L36.1978 29.22V35.1C36.1978 36.06 36.4778 36.86 37.0378 37.5C37.6378 38.1 38.3978 38.4 39.3178 38.4H45.7978V42H38.5978ZM39.8578 24.42C41.1778 24.06 42.0578 23.8 42.4978 23.64C42.9778 23.44 43.2978 23.16 43.4578 22.8C43.6178 22.44 43.6978 21.84 43.6978 21V17.7C43.6978 16.42 43.3578 15.48 42.6778 14.88C42.0378 14.28 41.1378 13.98 39.9778 13.98C38.8578 13.98 37.9378 14.3 37.2178 14.94C36.5378 15.58 36.1978 16.5 36.1978 17.7V25.44L39.8578 24.42ZM50.2758 42L58.9158 26.34L50.8758 10.8H55.4958L61.1358 21.84L66.8358 10.8H71.4558L63.4158 26.34L72.0558 42H67.0158L61.1358 30.6L55.3158 42H50.2758ZM83.5716 42.42C80.7716 42.42 78.5916 41.72 77.0316 40.32C75.5116 38.88 74.7516 36.9 74.7516 34.38V18.42C74.7516 15.9 75.5116 13.94 77.0316 12.54C78.5916 11.1 80.7716 10.38 83.5716 10.38C86.3716 10.38 88.5316 11.1 90.0516 12.54C91.6116 13.94 92.3916 15.9 92.3916 18.42V34.38C92.3916 36.9 91.6116 38.88 90.0516 40.32C88.5316 41.72 86.3716 42.42 83.5716 42.42ZM83.5716 38.7C84.8516 38.7 85.8516 38.34 86.5716 37.62C87.3316 36.86 87.7116 35.78 87.7116 34.38V18.42C87.7116 17.02 87.3316 15.96 86.5716 15.24C85.8516 14.48 84.8516 14.1 83.5716 14.1C82.2916 14.1 81.2716 14.48 80.5116 15.24C79.7916 15.96 79.4316 17.02 79.4316 18.42V34.38C79.4316 35.78 79.7916 36.86 80.5116 37.62C81.2716 38.34 82.2916 38.7 83.5716 38.7ZM98.393 10.8H102.113L102.653 13.02L104.153 12.3C105.433 11.66 106.493 11.18 107.333 10.86C108.213 10.54 109.093 10.38 109.973 10.38V13.92C109.453 13.92 108.753 14.08 107.873 14.4C106.993 14.68 105.433 15.36 103.193 16.44V42H98.393V10.8ZM120.808 42C119.368 42 118.028 41.64 116.788 40.92C115.588 40.2 114.628 39.22 113.908 37.98C113.228 36.74 112.888 35.34 112.888 33.78V30.66C112.888 28.78 113.348 27.2 114.268 25.92C115.228 24.64 116.408 23.74 117.808 23.22L125.248 20.46V17.64C125.248 16.68 124.948 15.9 124.348 15.3C123.788 14.66 123.048 14.34 122.128 14.34H115.348V10.8H122.548C124.748 10.8 126.488 11.46 127.768 12.78C129.088 14.06 129.748 15.82 129.748 18.06V42H120.808ZM125.248 38.34V24.24L119.968 26.22C118.928 26.62 118.188 27.16 117.748 27.84C117.348 28.52 117.148 29.6 117.148 31.08V34.44C117.148 35.52 117.548 36.44 118.348 37.2C119.148 37.96 120.108 38.34 121.228 38.34H125.248Z" fill="white"/>
</svg>
